<svg width="51" height="31" viewBox="0 0 51 31" fill="none" xmlns="http://www.w3.org/2000/svg">
<g clip-path="url(#clip0_117_219)">
<path d="M38.191 0C34.7597 0 31.832 0.6324 29.4095 1.891C26.9838 3.15735 25.1573 4.94605 23.9238 7.27105C22.6886 9.59605 22.0718 12.3396 22.0718 15.5V15.5372C22.0671 18.9162 21.2096 21.4923 19.4979 23.2733C17.7815 25.0588 15.343 25.9516 12.1858 25.9516H6.09291V5.04835H12.1858C15.3478 5.04835 17.7815 5.94115 19.4979 7.72675C20.1928 8.4475 20.7411 9.29845 21.1554 10.2796C21.581 7.90345 22.3141 5.7412 23.3548 3.7851L23.4983 3.52005C22.7478 2.89189 21.9285 2.34609 21.055 1.89255C18.6357 0.6324 15.7096 0 12.2767 0H0V31H12.2767C15.7096 31 18.6357 30.3676 21.0598 29.109C23.4791 27.8426 25.3119 26.0539 26.5455 23.7289C27.7743 21.4194 28.3911 18.6852 28.3958 15.5372V15.5C28.3958 12.1055 29.2549 9.51235 30.9713 7.72675C32.6862 5.94115 35.1263 5.04835 38.2835 5.04835H44.3764V25.947H38.2819C35.1199 25.947 32.6846 25.0542 30.9697 23.2686C30.2614 22.5216 29.6996 21.6549 29.3123 20.7111C28.8867 23.1152 28.1488 25.3099 27.0969 27.2862L26.9822 27.4985C27.7105 28.1077 28.5202 28.6424 29.4127 29.1074C31.8352 30.3722 34.7629 31 38.1942 31H50.4661V0H38.191Z" fill="#166DED"/>
</g>
<defs>
<clipPath id="clip0_117_219">
<rect width="51" height="31" fill="white"/>
</clipPath>
</defs>
</svg>
