<svg width="32" height="20" viewBox="0 0 32 20" fill="none" xmlns="http://www.w3.org/2000/svg">
<g clip-path="url(#clip0_9_294)">
<path d="M23.963 0C21.81 0 19.973 0.408 18.453 1.22C16.931 2.037 15.785 3.191 15.011 4.691C14.236 6.191 13.849 7.961 13.849 10V10.024C13.846 12.204 13.308 13.866 12.234 15.015C11.157 16.167 9.627 16.743 7.646 16.743H3.823V3.257H7.646C9.63 3.257 11.157 3.833 12.234 4.985C12.67 5.45 13.014 5.999 13.274 6.632C13.541 5.099 14.001 3.704 14.654 2.442L14.744 2.271C14.2731 1.86574 13.759 1.51361 13.211 1.221C11.693 0.408 9.857 0 7.703 0H0V20H7.703C9.857 20 11.693 19.592 13.214 18.78C14.732 17.963 15.882 16.809 16.656 15.309C17.427 13.819 17.814 12.055 17.817 10.024V10C17.817 7.81 18.356 6.137 19.433 4.985C20.509 3.833 22.04 3.257 24.021 3.257H27.844V16.74H24.02C22.036 16.74 20.508 16.164 19.432 15.012C18.9875 14.5301 18.635 13.9709 18.392 13.362C18.125 14.913 17.662 16.329 17.002 17.604L16.93 17.741C17.387 18.134 17.895 18.479 18.455 18.779C19.975 19.595 21.812 20 23.965 20H31.665V0H23.963Z" fill="url(#paint0_linear_9_294)"/>
</g>
<defs>
<linearGradient id="paint0_linear_9_294" x1="15.8325" y1="0" x2="15.8325" y2="20" gradientUnits="userSpaceOnUse">
<stop stop-color="#716FEA"/>
<stop offset="1" stop-color="#166DED"/>
</linearGradient>
<clipPath id="clip0_9_294">
<rect width="32" height="20" fill="white"/>
</clipPath>
</defs>
</svg>
