<svg width="1127" height="238" viewBox="0 0 1127 238" fill="none" xmlns="http://www.w3.org/2000/svg">
<path d="M713.99 31.2002V62.6396H746.15V91.4404L713.99 91.4619L676.551 91.4873L657 91.5C657 91.5 652.5 91.5 648 95.5C643.504 99.4966 604.543 196.637 604.478 196.8C600.318 207.2 595.517 215.36 590.077 221.28C584.797 227.2 578.877 231.36 572.317 233.76C565.918 236.16 558.798 237.36 550.958 237.36C544.238 237.36 537.597 236.32 531.037 234.24C524.477 232.16 519.118 229.28 514.958 225.6L528.638 198.96C531.518 201.52 534.798 203.52 538.478 204.96C542.318 206.4 546.078 207.12 549.758 207.12C555.038 207.12 559.197 205.84 562.237 203.28C565.437 200.88 568.318 196.8 570.878 191.04L571.336 189.959L515.438 59.7598H554.077L590.505 147.892C602.71 119.816 622.118 75.8823 625.5 72.5C630.5 67.5 634.513 66.2086 639.5 65C648.181 62.8961 656.631 62.6396 656.631 62.6396H676.551V31.2002H713.99ZM266.025 57.8398C274.825 57.8399 283.785 58.7998 292.905 60.7197C302.025 62.6397 309.625 65.4401 315.705 69.1201L303.225 95.7598C296.985 92.0799 290.665 89.6003 284.265 88.3203C278.025 86.8804 271.945 86.1602 266.025 86.1602C257.706 86.1602 251.625 87.2797 247.785 89.5195C243.945 91.7595 242.025 94.6402 242.025 98.1602C242.025 101.36 243.386 103.76 246.105 105.36C248.985 106.96 252.745 108.24 257.385 109.2C262.025 110.16 267.065 111.04 272.505 111.84C278.105 112.48 283.705 113.52 289.305 114.96C294.905 116.4 299.945 118.48 304.425 121.2C309.065 123.76 312.825 127.36 315.705 132C318.585 136.48 320.025 142.4 320.025 149.76C320.025 157.76 317.625 164.88 312.825 171.12C308.025 177.2 301.065 182.001 291.945 185.521C282.985 189.04 272.025 190.8 259.065 190.8C248.025 190.8 237.385 189.52 227.145 186.96C217.065 184.24 209.064 180.88 203.145 176.88L215.625 150C221.545 153.68 228.505 156.72 236.505 159.12C244.665 161.36 252.665 162.48 260.505 162.48C269.145 162.48 275.225 161.44 278.745 159.36C282.425 157.28 284.265 154.4 284.265 150.72C284.265 147.68 282.825 145.44 279.945 144C277.225 142.4 273.545 141.2 268.905 140.4C264.265 139.6 259.145 138.8 253.545 138C248.105 137.2 242.585 136.16 236.985 134.88C231.385 133.44 226.265 131.36 221.625 128.64C216.985 125.92 213.225 122.24 210.345 117.6C207.625 112.96 206.265 106.959 206.265 99.5996C206.265 91.4399 208.585 84.2399 213.225 78C218.025 71.76 224.905 66.8803 233.865 63.3604C242.825 59.6804 253.545 57.8398 266.025 57.8398ZM714 97L713.99 144C713.99 149.44 715.431 153.68 718.311 156.72C721.19 159.6 725.11 161.04 730.07 161.04C735.99 161.04 741.03 159.44 745.19 156.24L755.271 182.64C751.43 185.36 746.791 187.44 741.351 188.88C736.071 190.16 730.551 190.8 724.791 190.8C709.591 190.8 697.75 186.96 689.271 179.28C680.791 171.44 676.551 159.84 676.551 144.48L676.56 97H714ZM74.335 147.669L111.36 59.7598H147.36L92.8799 188.88H54.2402L0 59.7598H38.6396L74.335 147.669ZM190.478 188.88H153.037V59.7598H190.478V188.88ZM509.49 188.88H472.05V10.7998H509.49V188.88ZM804.128 188.88H766.688V59.7598H804.128V188.88ZM171.758 0C178.638 5.96149e-05 184.238 1.91985 188.558 5.75977C192.878 9.43977 195.037 14.2402 195.037 20.1602C195.037 26.4 192.877 31.5998 188.558 35.7598C184.398 39.7597 178.798 41.7597 171.758 41.7598C164.878 41.7598 159.277 39.7598 154.957 35.7598C150.637 31.7598 148.478 26.7997 148.478 20.8799C148.478 14.96 150.637 9.99993 154.957 6C159.277 1.99999 164.878 0 171.758 0ZM785.407 0C792.287 0 797.888 1.91976 802.208 5.75977C806.528 9.43975 808.688 14.2402 808.688 20.1602C808.687 26.3999 806.528 31.5999 802.208 35.7598C798.048 39.7598 792.447 41.7598 785.407 41.7598C778.527 41.7597 772.927 39.7597 768.607 35.7598C764.288 31.7598 762.128 26.7998 762.128 20.8799C762.128 14.9599 764.287 9.99996 768.607 6C772.927 2.00004 778.527 4.7315e-05 785.407 0Z" fill="#2A279C"/>
<path d="M386.662 62.999C402.804 62.999 415.421 68.1226 424.511 78.3691V64.8916H461.184V192.107H426.156V177.447L425.216 128.499C425.216 117.78 422.16 109.267 416.048 102.962C409.936 96.4987 402.256 93.2667 393.01 93.2666C383.606 93.2666 375.849 96.4986 369.736 102.962C363.624 109.267 360.567 117.78 360.567 128.499C360.567 139.219 363.624 147.81 369.736 154.273C375.849 160.579 383.606 163.732 393.01 163.732C402.256 163.732 409.936 160.579 416.048 154.273C416.727 153.555 417.369 152.81 417.973 152.039V185.129C409.72 191.043 399.283 193.999 386.662 193.999C374.751 193.999 363.937 191.32 354.221 185.96C344.661 180.6 337.138 172.954 331.652 163.022C326.167 153.091 323.425 141.583 323.425 128.499C323.425 115.415 326.167 103.907 331.652 93.9756C337.138 84.0443 344.661 76.3988 354.221 71.0391C363.937 65.6793 374.751 62.999 386.662 62.999ZM1051.93 63.001C1068.07 63.001 1080.69 68.1226 1089.78 78.3691V64.8926H1126.45V192.107H1091.42V177.447L1090.48 128.5C1090.48 117.781 1087.42 109.269 1081.31 102.963C1075.2 96.4997 1067.52 93.2667 1058.27 93.2666C1048.87 93.2666 1041.11 96.4996 1035 102.963C1028.89 109.269 1025.83 117.78 1025.83 128.5C1025.83 139.219 1028.89 147.81 1035 154.273C1041.11 160.579 1048.87 163.732 1058.27 163.732C1067.52 163.732 1075.2 160.579 1081.31 154.273C1081.99 153.555 1082.63 152.812 1083.24 152.041V185.13C1074.98 191.044 1064.55 193.999 1051.93 193.999C1040.02 193.999 1029.2 191.32 1019.49 185.96C1009.93 180.6 1002.4 172.955 996.917 163.023C991.432 153.092 988.69 141.584 988.689 128.5C988.689 115.416 991.432 103.908 996.917 93.9766C1002.4 84.0453 1009.93 76.3988 1019.49 71.0391C1029.2 65.6793 1040.02 63.001 1051.93 63.001Z" fill="#2A279C"/>
<path d="M964.644 22C966.194 22.0001 967.489 23.1811 967.631 24.7246L967.703 25.5078C967.932 27.9963 967.91 30.5024 967.636 32.9863C967.481 34.3843 966.299 35.4431 964.893 35.4434H901.177C901.203 35.4434 901.047 35.4546 900.549 35.6592C900.096 35.8453 899.46 36.1482 898.593 36.6035C896.86 37.5128 894.267 38.9957 890.476 41.2812C883.007 45.7836 871.142 56.5342 866.274 61.877C863.473 65.3444 859.452 71.9071 856.589 79.9912C853.721 88.0871 852.042 97.6309 853.839 107.076C858.405 131.074 866.072 140.224 872.205 145.518C875.408 148.282 878.646 151.47 884.297 155.262C889.941 159.049 898.001 163.44 910.75 168.491C930.489 176.312 955.661 178.853 967.224 179.07C968.315 179.091 969.194 179.979 969.194 181.076V185.587C969.194 186.69 968.3 187.585 967.197 187.587L811.003 187.844C809.897 187.845 809 186.949 809 185.844V183.965C809 183.34 809.288 182.752 809.789 182.371C812.89 180.01 817.534 176.015 821.73 171.434C825.951 166.825 829.612 161.737 830.897 157.186C833.636 147.487 834.699 138.181 834.888 134.776L834.89 134.748L834.893 134.72C835.221 131.792 835.293 125.491 835.39 118.108C835.485 110.767 835.606 102.419 836.039 95.498C836.91 81.5844 843.506 67.9315 847.054 60.8213C848.504 57.2953 854.432 48.2082 866.915 38.5928C879.412 28.9671 891.949 23.2804 897.505 22.0244L897.614 22H964.644ZM963.729 178.78L962.692 178.742H962.686C962.682 178.742 962.675 178.741 962.668 178.741C962.653 178.741 962.631 178.74 962.603 178.739C962.545 178.737 962.459 178.733 962.348 178.728C962.124 178.717 961.793 178.699 961.359 178.672C960.492 178.619 959.215 178.529 957.57 178.382C954.279 178.088 949.512 177.564 943.593 176.65C937.678 175.737 933.701 174.954 931.195 174.396C929.943 174.116 929.057 173.894 928.48 173.739C928.192 173.662 927.981 173.602 927.84 173.561C927.769 173.54 927.716 173.524 927.68 173.513C927.661 173.507 927.647 173.502 927.637 173.499C927.632 173.498 927.628 173.496 927.625 173.495C927.624 173.495 927.622 173.494 927.621 173.494L927.619 173.493H927.618L926.926 173.27V148.655H963.729V178.78ZM979.836 148.313H915.477L915.973 146.968L918.562 139.946L918.803 139.292H968V95.5996H979.836V148.313ZM877.44 119.755L878.465 120.497L878.879 120.796V127.539L878.465 127.839L877.44 128.58V136.871H865.223L864.934 136.372L864.933 136.371C864.932 136.37 864.931 136.369 864.931 136.367C864.929 136.364 864.927 136.36 864.924 136.354C864.917 136.343 864.908 136.328 864.896 136.307C864.871 136.264 864.836 136.202 864.79 136.121C864.698 135.96 864.565 135.724 864.399 135.427C864.068 134.832 863.606 133.988 863.08 132.988C862.031 130.993 860.72 128.36 859.695 125.846C858.669 123.326 857.651 120.101 856.894 117.525C856.514 116.234 856.197 115.097 855.976 114.283C855.865 113.877 855.778 113.55 855.719 113.325C855.689 113.213 855.666 113.126 855.65 113.066C855.643 113.037 855.637 113.013 855.633 112.998C855.631 112.991 855.629 112.984 855.628 112.98C855.628 112.979 855.627 112.977 855.627 112.977V112.975C855.632 112.973 855.701 112.955 856.595 112.725L855.626 112.975L855.304 111.725H877.44V119.755ZM955.1 46.8857H946.209L945.356 47.8486L945.059 48.1865H937.83L937.531 47.8486L936.679 46.8857H927.501V35.7832H955.1V46.8857Z" fill="#2A279C"/>
</svg>
