<svg width="263" height="100" viewBox="0 0 263 100" fill="none" xmlns="http://www.w3.org/2000/svg">
<path d="M32.04 58L25.832 20.176H33.512L37.352 50.128L41.32 20.176H48.744L42.472 58H32.04ZM52.2505 58V20.176H59.6745V58H52.2505ZM74.663 58.448C72.4017 58.448 70.4603 58.128 68.839 57.488C67.2603 56.848 66.0443 55.7173 65.191 54.096C64.3377 52.4747 63.911 50.192 63.911 47.248V45.008C65.2337 45.008 66.535 45.008 67.815 45.008C69.095 45.008 70.375 45.008 71.655 45.008V47.888C71.655 49.4667 71.783 50.6827 72.039 51.536C72.295 52.3467 72.6577 52.9227 73.127 53.264C73.5963 53.5627 74.151 53.712 74.791 53.712C75.7723 53.712 76.5403 53.3707 77.095 52.688C77.6923 51.9627 77.991 50.576 77.991 48.528C77.991 46.9493 77.735 45.776 77.223 45.008C76.7537 44.1973 75.9857 43.5573 74.919 43.088C73.8523 42.576 72.487 41.9573 70.823 41.232C69.3297 40.592 68.0923 39.824 67.111 38.928C66.1297 38.032 65.4043 36.9013 64.935 35.536C64.4657 34.1707 64.231 32.5067 64.231 30.544C64.231 28.0693 64.551 26.064 65.191 24.528C65.8737 22.992 66.983 21.8827 68.519 21.2C70.0977 20.4747 72.2097 20.112 74.855 20.112C78.2683 20.112 80.871 20.8587 82.663 22.352C84.4977 23.8027 85.415 26 85.415 28.944V33.488C84.1777 33.488 82.9403 33.488 81.703 33.488C80.5083 33.488 79.271 33.488 77.991 33.488V31.184C77.991 29.264 77.7563 27.92 77.287 27.152C76.8603 26.384 76.071 26 74.919 26C73.8097 26 73.0203 26.3413 72.551 27.024C72.0817 27.7067 71.847 28.816 71.847 30.352C71.847 31.76 72.1243 32.8693 72.679 33.68C73.2763 34.448 74.023 35.0453 74.919 35.472C75.815 35.856 76.775 36.24 77.799 36.624C79.6763 37.3493 81.2123 38.096 82.407 38.864C83.6017 39.5893 84.4763 40.6133 85.031 41.936C85.5857 43.216 85.863 45.072 85.863 47.504C85.863 50.2347 85.3937 52.4107 84.455 54.032C83.559 55.6107 82.2577 56.7413 80.551 57.424C78.887 58.1067 76.9243 58.448 74.663 58.448ZM87.887 58L94.671 20.176H105.295L111.951 58H103.631L102.479 51.024H96.975L95.887 58H87.887ZM97.103 47.312H102.415L99.791 26.768L97.103 47.312ZM115.126 58V20.176H122.486V52.88H131.062V58H115.126ZM136.868 58V41.936L129.764 20.176H137.188L140.452 31.504L140.9 33.936L141.348 31.504L144.868 20.176H151.652L144.292 42.32V58H136.868ZM158.777 58V25.424H152.889V20.176H172.089V25.424H166.201V58H158.777ZM175.376 58V20.176H182.8V58H175.376ZM198.428 58.768C196.337 58.768 194.481 58.512 192.86 58C191.281 57.5307 190.023 56.528 189.084 54.992C188.188 53.4133 187.74 51.088 187.74 48.016V28.176C187.74 25.9147 188.188 24.1653 189.084 22.928C190.023 21.6907 191.303 20.8373 192.924 20.368C194.545 19.856 196.401 19.6 198.492 19.6C200.625 19.6 202.46 19.856 203.996 20.368C205.575 20.88 206.791 21.7547 207.644 22.992C208.497 24.2293 208.924 25.9573 208.924 28.176V35.984H201.5V27.856C201.5 26.832 201.372 26.064 201.116 25.552C200.86 24.9973 200.497 24.6347 200.028 24.464C199.601 24.2933 199.089 24.208 198.492 24.208C197.895 24.208 197.361 24.2933 196.892 24.464C196.423 24.6347 196.06 24.9973 195.804 25.552C195.548 26.064 195.42 26.832 195.42 27.856V50.768C195.42 51.7493 195.548 52.5173 195.804 53.072C196.06 53.584 196.423 53.9467 196.892 54.16C197.361 54.3307 197.895 54.416 198.492 54.416C199.089 54.416 199.601 54.3307 200.028 54.16C200.497 53.9467 200.86 53.584 201.116 53.072C201.372 52.5173 201.5 51.7493 201.5 50.768V43.28H208.924V47.952C208.924 51.0667 208.497 53.4133 207.644 54.992C206.791 56.528 205.575 57.5307 203.996 58C202.46 58.512 200.604 58.768 198.428 58.768ZM211.45 58L218.234 20.176H228.858L235.514 58H227.194L226.042 51.024H220.538L219.45 58H211.45ZM220.666 47.312H225.978L223.354 26.768L220.666 47.312Z" fill="url(#paint0_linear_153_338)"/>
<path d="M261 63C262.105 63 263 63.8954 263 65V97.9805C263 99.085 262.105 99.9805 261 99.9805H250.391V90.1191H248.589V99.9805H244.986V95.0498H243.185V99.9805H239.582V95.0498H237.781V99.9805H234.178V95.0498H232.377V99.9805H228.774V95.0498H226.973V99.9805H223.37V90.1191H221.568V99.9805H217.966V95.0498H216.164V99.9805H212.562V95.0498H210.761V99.9805H207.157V95.0498H205.356V99.9805H201.753V95.0498H199.952V99.9805H196.35V90.1191H194.548V99.9805H190.945V95.0498H189.144V99.9805H185.541V95.0498H183.739V99.9805H180.137V95.0498H178.336V99.9805H174.732V95.0498H172.932V99.9805H169.329V90.1191H167.527V99.9805H163.925V95.0498H162.123V99.9805H158.521V95.0498H156.719V99.9805H153.116V95.0498H151.315V99.9805H147.712V95.0498H145.911V99.9805H142.309V90.1191H140.507V99.9805H136.904V95.0498H135.103V99.9805H131.5V95.0498H129.698V99.9805H126.096V95.0498H124.295V99.9805H120.691V95.0498H118.891V99.9805H115.288V90.1191H113.486V99.9805H109.884V95.0498H108.082V99.9805H104.479V95.0498H102.678V99.9805H99.0752V95.0498H97.2734V99.9805H93.6709V95.0498H91.8701V99.9805H88.2676V90.1191H86.4658V99.9805H82.8633V95.0498H81.0615V99.9805H77.459V95.0498H75.6572V99.9805H72.0547V95.0498H70.2539V99.9805H66.6504V95.0498H64.8496V99.9805H61.2461V90.1191H59.4453V99.9805H55.8428V95.0498H54.041V99.9805H50.4385V95.0498H48.6367V99.9805H45.0342V95.0498H43.2334V99.9805H39.6299V95.0498H37.8291V99.9805H34.2256V90.1191H32.4248V99.9805H28.8223V95.0498H27.0205V99.9805H23.418V95.0498H21.6162V99.9805H18.0137V95.0498H16.2119V99.9805H12.6094V95.0498H10.8086V99.9805H2C0.895433 99.9805 3.54337e-06 99.085 0 97.9805V65C0 63.8954 0.895431 63 2 63H261Z" fill="url(#paint1_linear_153_338)"/>
<defs>
<linearGradient id="paint0_linear_153_338" x1="25" y1="46.875" x2="239.003" y2="45.4732" gradientUnits="userSpaceOnUse">
<stop stop-color="#166DED"/>
<stop offset="1" stop-color="#2A279C"/>
</linearGradient>
<linearGradient id="paint1_linear_153_338" x1="-4.41967e-08" y1="80.2576" x2="263" y2="80.2575" gradientUnits="userSpaceOnUse">
<stop stop-color="#166DED"/>
<stop offset="1" stop-color="#2A279C"/>
</linearGradient>
</defs>
</svg>
